<?xml version="1.0" standalone="no"?>
<!DOCTYPE svg PUBLIC "-//W3C//DTD SVG 20010904//EN"
 "http://www.w3.org/TR/2001/REC-SVG-20010904/DTD/svg10.dtd">
<svg version="1.0" xmlns="http://www.w3.org/2000/svg"
 width="500.000000pt" height="500.000000pt" viewBox="0 0 500.000000 500.000000"
 preserveAspectRatio="xMidYMid meet">
<metadata>
Created by potrace 1.14, written by Peter Selinger 2001-2017
</metadata>
<g transform="translate(0.000000,500.000000) scale(0.100000,-0.100000)"
fill="#000000" stroke="none">
<path d="M3029 4826 c-2 -2 -30 -7 -62 -10 -33 -4 -70 -11 -83 -16 -13 -5 -24
-8 -24 -5 0 6 -125 -42 -181 -70 -195 -99 -352 -263 -447 -468 -18 -37 -32
-73 -32 -80 0 -8 -3 -17 -7 -21 -5 -4 -8 -11 -9 -14 0 -4 -6 -25 -12 -47 -6
-22 -13 -53 -16 -70 -16 -103 -19 -122 -22 -140 -7 -30 -6 -245 1 -285 3 -19
7 -51 10 -70 3 -19 7 -46 10 -60 3 -14 8 -38 10 -55 13 -70 29 -115 85 -229
36 -74 135 -236 170 -279 46 -56 90 -118 90 -127 0 -5 3 -10 8 -10 4 0 18 -18
32 -40 14 -22 28 -40 32 -40 5 0 7 -3 6 -7 -1 -5 3 -17 8 -28 48 -90 0 -146
-146 -170 -19 -3 -42 -8 -50 -10 -8 -2 -46 -7 -85 -11 -122 -11 -184 -18 -250
-29 -11 -1 -40 -6 -65 -9 -25 -4 -52 -8 -60 -11 -8 -2 -31 -7 -50 -10 -19 -3
-57 -10 -85 -15 -27 -6 -60 -12 -73 -15 -13 -2 -31 -6 -40 -9 -9 -3 -30 -8
-47 -11 -16 -2 -41 -7 -55 -10 -13 -2 -40 -7 -60 -10 -20 -3 -47 -8 -60 -11
-82 -17 -188 -22 -243 -11 -62 13 -66 14 -222 82 -291 126 -318 135 -392 129
-76 -5 -128 -30 -178 -86 -44 -49 -101 -154 -124 -228 -39 -129 -61 -211 -67
-250 -10 -73 -12 -370 -3 -404 4 -17 10 -44 13 -61 13 -70 19 -96 53 -200 19
-60 52 -145 74 -187 80 -161 221 -336 358 -446 25 -20 48 -39 51 -42 23 -24
192 -113 285 -150 112 -45 333 -111 420 -125 11 -2 45 -8 75 -14 96 -18 104
-19 160 -25 30 -4 69 -9 85 -11 29 -5 94 -12 180 -20 22 -2 63 -6 90 -9 177
-20 388 -28 750 -29 311 0 518 6 610 18 17 2 71 7 120 10 50 3 101 7 115 10
27 5 90 14 132 20 81 11 291 71 339 96 45 23 59 29 68 29 16 0 132 70 194 118
249 190 369 433 369 752 1 133 -37 407 -60 445 -3 5 -7 16 -8 24 -4 23 -46
123 -78 186 -63 124 -131 212 -290 371 -89 89 -172 174 -186 190 -43 51 -90
122 -90 136 0 8 -4 18 -9 24 -16 17 -29 93 -25 146 2 29 4 67 5 85 2 27 8 34
40 47 21 9 49 17 63 20 41 7 181 72 232 107 121 83 179 193 153 291 -11 44
-38 73 -118 128 -84 56 -84 55 0 139 87 86 132 185 135 298 2 58 -2 81 -21
120 -47 97 -156 173 -252 175 -34 1 -67 -8 -115 -30 -37 -18 -72 -32 -77 -32
-6 0 -14 12 -17 28 -16 66 -60 138 -130 210 -41 42 -74 78 -74 82 0 3 -10 16
-23 30 -12 14 -34 40 -50 58 -15 19 -27 30 -27 27 0 -4 -13 7 -29 24 -16 17
-33 31 -39 31 -5 0 -16 7 -23 16 -7 9 -58 38 -114 64 -141 68 -271 97 -430 98
-51 1 -94 -1 -96 -2z"/>
</g>
</svg>
